<svg width="400" height="300" xmlns="http://www.w3.org/2000/svg">
  <defs>
    <linearGradient id="grad1" x1="0%" y1="0%" x2="100%" y2="100%">
      <stop offset="0%" style="stop-color:#4fdce5;stop-opacity:0.3" />
      <stop offset="100%" style="stop-color:#2dd4da;stop-opacity:0.1" />
    </linearGradient>
  </defs>
  <rect width="100%" height="100%" fill="url(#grad1)"/>
  
  <!-- Beautiful Musical Notes -->
  <!-- First musical note (eighth note) - moved to far left -->
  <ellipse cx="60" cy="100" rx="12" ry="8" fill="rgba(255,255,255,0.2)"/>
  <rect x="72" y="65" width="3" height="35" fill="rgba(255,255,255,0.2)"/>
  <path d="M75,65 Q85,60 90,65 Q85,70 75,70" fill="rgba(255,255,255,0.18)"/>
  
  <!-- Second musical note (quarter note) - moved to far right -->
  <ellipse cx="340" cy="180" rx="10" ry="7" fill="rgba(255,255,255,0.18)"/>
  <rect x="350" y="150" width="3" height="30" fill="rgba(255,255,255,0.18)"/>
  
  <!-- Third musical note (beamed eighth notes) - moved to left side -->
  <ellipse cx="80" cy="220" rx="8" ry="6" fill="rgba(255,255,255,0.15)"/>
  <rect x="88" y="195" width="2.5" height="25" fill="rgba(255,255,255,0.15)"/>
  <ellipse cx="105" cy="215" rx="8" ry="6" fill="rgba(255,255,255,0.15)"/>
  <rect x="113" y="190" width="2.5" height="25" fill="rgba(255,255,255,0.15)"/>
  <!-- Beam connecting the notes -->
  <path d="M90.5,195 L115.5,190 L115.5,195 L90.5,200 Z" fill="rgba(255,255,255,0.15)"/>
  
  <!-- Small simple music notes -->
  <!-- Center music note -->
  <ellipse cx="200" cy="150" rx="6" ry="4" fill="rgba(255,255,255,0.15)"/>
  <rect x="206" y="135" width="2" height="15" fill="rgba(255,255,255,0.15)"/>
  
  <!-- Top right music note -->
  <ellipse cx="320" cy="80" rx="5" ry="3" fill="rgba(255,255,255,0.12)"/>
  <rect x="325" y="70" width="1.5" height="10" fill="rgba(255,255,255,0.12)"/>
  
  <!-- Bottom left music note -->
  <ellipse cx="80" cy="220" rx="5" ry="3" fill="rgba(255,255,255,0.12)"/>
  <rect x="85" y="210" width="1.5" height="10" fill="rgba(255,255,255,0.12)"/>
</svg>
