<svg width="400" height="300" xmlns="http://www.w3.org/2000/svg">
  <defs>
    <linearGradient id="grad3" x1="0%" y1="0%" x2="100%" y2="100%">
      <stop offset="0%" style="stop-color:#4fdce5;stop-opacity:0.3" />
      <stop offset="100%" style="stop-color:#2dd4da;stop-opacity:0.1" />
    </linearGradient>
  </defs>
  <rect width="100%" height="100%" fill="url(#grad3)"/>
  <!-- Vinyl record -->
  <circle cx="200" cy="150" r="70" fill="rgba(255,255,255,0.1)"/>
  <circle cx="200" cy="150" r="50" fill="rgba(255,255,255,0.05)"/>
  <circle cx="200" cy="150" r="30" fill="rgba(255,255,255,0.1)"/>
  <circle cx="200" cy="150" r="8" fill="rgba(255,255,255,0.3)"/>
  <!-- Record grooves -->
  <circle cx="200" cy="150" r="60" stroke="rgba(255,255,255,0.08)" stroke-width="1" fill="none"/>
  <circle cx="200" cy="150" r="45" stroke="rgba(255,255,255,0.08)" stroke-width="1" fill="none"/>
  <circle cx="200" cy="150" r="35" stroke="rgba(255,255,255,0.08)" stroke-width="1" fill="none"/>
  <!-- Studio monitors -->
  <rect x="80" y="60" width="40" height="60" rx="4" fill="rgba(255,255,255,0.12)"/>
  <rect x="280" y="60" width="40" height="60" rx="4" fill="rgba(255,255,255,0.12)"/>
  <circle cx="100" cy="80" r="12" fill="rgba(255,255,255,0.15)"/>
  <circle cx="300" cy="80" r="12" fill="rgba(255,255,255,0.15)"/>
  <circle cx="100" cy="100" r="8" fill="rgba(255,255,255,0.15)"/>
  <circle cx="300" cy="100" r="8" fill="rgba(255,255,255,0.15)"/>
  <!-- Waveform -->
  <path d="M50,250 L70,240 L90,245 L110,235 L130,250 L150,230 L170,240 L190,225 L210,235 L230,220 L250,230 L270,225 L290,235 L310,240 L330,245 L350,250" stroke="rgba(255,255,255,0.12)" stroke-width="2" fill="none"/>
</svg>
